<svg viewBox="0 0 48 34" fill="none" xmlns="http://www.w3.org/2000/svg"><path d="M36.731 10.359c2.894 5.84-1.668 13.982-10.19 18.185-8.522 4.204-17.777 2.878-20.67-2.962C2.974 19.742 7.536 11.6 16.058 7.396c8.523-4.204 17.777-2.877 20.671 2.963" fill="red"/><path d="M12.767 13.425S23.53 16.06 24.14 25.175c.609.101.609 0 .609 0 .968-2.799 8.982-19.79 18.175-21.575 0 0-10.763-1.014-18.784 13.877-5.224-5.716-11.373-4.051-11.373-4.051" fill="red"/><path d="M12.209 13.324s10.763 2.633 11.372 11.75c.61.102.61 0 .61 0s6.7-19.347 18.174-21.576c0 0-10.763-1.012-18.784 13.878-5.224-5.716-11.372-4.052-11.372-4.052" fill="#fff"/><path d="M20.52 25.562c-4.521-.31-8.075-2.007-7.937-3.786.137-1.782 3.915-2.972 8.436-2.66.075.005.148.014.223.018-1.114-.431-2.423-.728-3.841-.826-4.253-.292-7.84 1.288-8.014 3.532-.174 2.244 3.133 4.3 7.385 4.594 2.14.148 4.112-.18 5.565-.829-.587.012-1.194 0-1.816-.042" fill="#fff"/></svg>
