<svg viewBox="0 0 271 269" xmlns="http://www.w3.org/2000/svg"><path fill="none" d="M-1-1h273v271H-1z"/><defs><clipPath id="a"><path d="M2.257 54.651H58.95V-2.042H2.257v56.693z"/></clipPath><linearGradient x1=".286" y1=".556" x2=".872" y2=".426" id="b"><stop stop-color="#e2001a" offset="0"/><stop stop-color="#8b0e13" offset="1"/></linearGradient><linearGradient x1=".5" y1="-.708" x2=".5" y2=".176" id="c"><stop stop-color="#e06e1c" offset="0"/><stop stop-color="#fdcf00" offset="1"/></linearGradient><linearGradient x1=".27" y1=".756" x2=".468" y2=".398" id="d"><stop stop-color="#e49d00" offset="0"/><stop stop-color="#ffd500" offset=".545"/><stop stop-color="#ffd500" offset="1"/></linearGradient><linearGradient x1=".5" y1="1.008" x2=".5" y2=".643" id="e"><stop stop-color="#e49d00" offset="0"/><stop stop-color="#ffd500" offset=".545"/><stop stop-color="#ffd500" offset="1"/></linearGradient><linearGradient x1=".103" y1=".5" x2=".886" y2=".5" id="f"><stop stop-color="#e1031e" offset="0"/><stop stop-color="#ffd500" offset="1"/></linearGradient></defs><g clip-path="url(#a)" transform="matrix(4.64253 0 0 -4.64253 -4.643 255.608)"><path fill="#003576" d="M57.116 26.087c0-14.873-12.056-26.93-26.93-26.93-14.872 0-26.929 12.057-26.929 26.93 0 14.872 12.057 26.93 26.93 26.93s26.93-12.058 26.93-26.93"/><path fill="url(#b)" d="M29.684 45.931C18.44 45.737 9.142 37.89 8.734 27.1 8.33 16.31 16.745 7.23 27.535 6.827a19.481 19.481 0 0 1 14.232 5.387c3.553 3.39 3.406 9.35.582 6.645-3.108-2.97-7.449-4.746-12.185-4.575-9.033.324-16.079 7.616-15.74 16.285.313 8.045 8.29 14.412 15.432 14.796l.186.568c-.119 0-.237 0-.358-.002"/><path fill="url(#c)" d="M31.255 45.36c9.074-.547 16.545-8.279-9.865-16 6.728-1.324 11.697-4.478 11.697-4.478 22.61 11.495 9.748 21.09-3.045 21.051l-.186-.568c.47.025.937.025 1.4-.005"/><path fill="url(#d)" d="M45.403 28.747c-5.742-2.414-5.269-8.843-4.425-13.795a7.009 7.009 0 0 1-.143.62c.326-1.528.168-3.128-.674-4.778-1.65-2.807-4.316-4.92-9.465-6.3 13.192-.605 28.288 12.064 14.707 24.253"/><path fill="url(#e)" d="M40.993 15.436c-1.265 6.103-2.035 14.508 9.215 15.1-13.472 6.473-22.373.11-28.993-1.177 5.901-.748 18.343-7.297 19.778-13.923"/><path fill="url(#f)" d="M20.132 41.321c2.841 2.366 6.375 3.862 9.724 4.044.47.025.937.025 1.4-.005 4.448-.269 8.507-2.265 8.382-5.142l2.226 2.622c-2.972 1.97-7.4 3.104-11.822 3.093-.119 0-.237 0-.358-.002-4.167-.072-8.062-1.198-11.337-3.129l1.785-1.48z"/></g></svg>
